<?xml version="1.0" encoding="utf-8" ?>
<svg xmlns="http://www.w3.org/2000/svg" xmlns:xlink="http://www.w3.org/1999/xlink" width="1024" height="1024">
	<path fill="#1A202C" d="M0 -0L1024 0L1024 1024L-0 1024L0 -0Z"/>
	<path fill="#06CCF2" d="M135.099 672.615C138.924 672.378 142.8 673.338 146.14 675.203C150.86 677.839 154.712 682.372 156.074 687.672C157.383 692.771 156.332 698.612 153.546 703.032C150.159 708.406 144.768 710.788 138.79 712.002C134.053 712.171 130.633 711.995 126.473 709.326C121.868 706.371 118.281 701.394 117.227 695.993C116.248 690.977 117.647 685.235 120.489 681.051C124 675.885 129.231 673.724 135.099 672.615Z"/>
	<path fill="#FDFCFC" d="M519.977 426.796C519.929 422.253 518.801 414.386 522.25 410.976C525.21 408.051 529.129 408.457 532.947 408.429L559.515 408.306C563.916 408.304 568.99 407.909 573.316 408.658C575.376 409.014 577.638 409.854 579.074 411.433C582.724 415.445 582.184 420.824 582.065 425.83C580.351 428.312 578.721 431.444 575.432 431.876L525.3 432.007L519.977 426.796Z"/>
	<path fill="#00BCB4" d="M805.497 195.129C810.749 194.68 815.924 194.986 820.61 197.656C825.597 200.498 829.289 205.157 830.763 210.729C832.194 216.134 831.167 222.717 828.333 227.486C825.05 233.008 820.282 235.896 814.227 237.429L813.767 237.482L813 237.564C807.872 238.176 804.081 237.814 799.422 235.29C794.001 232.354 790.284 226.839 788.847 220.918C787.527 215.477 788.833 209.261 791.718 204.556C795.171 198.924 799.258 196.579 805.497 195.129Z"/>
	<path fill="#FDFCFC" d="M594.015 371.599C593.97 366.459 592.642 359.006 596.54 355.066C598.988 352.591 601.206 352.391 604.509 352.334L634.824 352.299C639.564 352.309 645.567 351.703 650.178 352.66C651.927 353.022 653.692 353.857 654.932 355.162C657.434 357.794 657.49 361.213 657.328 364.592L657.377 370.709C657.097 372.143 656.809 373.533 656.75 374.998L652.207 375.145L651.327 376.28L600.391 376.61C597.381 376.311 595.74 373.788 594.015 371.599Z"/>
	<path fill="#06CCF2" d="M652.207 375.145L657.328 364.592L657.377 370.709C657.097 372.143 656.809 373.533 656.75 374.998L652.207 375.145Z"/>
	<path fill="#FDFCFC" d="M444.433 475.558C444.408 470.289 443.019 462.325 446.905 458.25C447.943 457.162 449.202 456.251 450.679 455.888C454.969 454.833 460.941 455.476 465.434 455.443L495.5 455.292C499.378 455.319 502.143 455.125 505.084 457.918C508.446 461.112 508.017 465.748 507.961 469.99L507.73 481.076L452 481.012C448.473 480.563 446.52 478.162 444.433 475.558Z"/>
	<path fill="#FDFCFC" d="M369.388 529.103L369.024 506.266C371.066 504.97 373.033 503.849 375.454 503.455C379.944 502.724 385.169 503.136 389.734 503.092L419.898 502.992C423.839 503.026 427.854 503.296 430.673 506.426C433.769 509.863 432.522 518.652 432.475 523.088C430.007 526.191 428.168 528.295 423.985 528.7L369.388 529.103Z"/>
	<path fill="#0FEDF1" d="M519.977 426.796L525.3 432.007L575.432 431.876C578.721 431.444 580.351 428.312 582.065 425.83L582.475 449.012C567.682 456.754 553.614 464.917 538 471.085C532.258 473.353 525.939 475.858 519.848 476.892L519.977 426.796Z"/>
	<path fill="#00BCB4" d="M190.857 769.193C197.063 768.719 204.046 770.492 209.214 773.993C216.351 778.828 221.953 785.929 223.562 794.532C225.094 802.717 223.924 812.298 219.116 819.258C213.378 827.564 204.658 831.35 195.019 833.008C187.012 833.2 179.513 831.833 173.032 826.836C166.546 821.834 161.32 814.303 160.486 805.994C159.619 797.367 161.79 788.233 167.344 781.464C173.527 773.927 181.226 770.181 190.857 769.193Z"/>
	<path fill="#FF4B00" d="M517.935 348.989C519.786 351.073 519.012 370.527 519.019 374.555L371.193 462.551L370.435 462.086C369.774 459.678 370.115 456.493 370.099 453.978L370.012 437.424L517.935 348.989Z"/>
	<path fill="#FF4B00" d="M513.874 289.489C515.509 289.425 516.936 289.183 518.364 290.139C519.362 292.139 518.989 294.865 518.992 297.077L518.944 312.388L374.561 398.451L369.997 400.913L369.955 374.904L513.874 289.489Z"/>
	<path fill="#087CF3" d="M519.848 476.892C525.939 475.858 532.258 473.353 538 471.085C553.614 464.917 567.682 456.754 582.475 449.012L582.575 531.946L519.741 532.184L519.848 476.892Z"/>
	<path fill="#087CF3" d="M869.204 252.659C873.017 252.246 877.331 252.315 881.07 253.2L882.992 253.667C893.875 256.287 902.044 262.901 907.75 272.439C913.136 281.441 914.044 292.431 911.547 302.5C910.309 307.495 908.078 312.055 905.016 316.195C898.623 324.836 889.205 330.032 878.68 331.649C868.83 332.486 859.42 330.65 851.13 325.024C842.044 318.857 836.276 308.962 834.441 298.233C832.724 288.194 835.616 276.537 841.717 268.386C848.651 259.122 857.909 254.351 869.204 252.659Z"/>
	<path fill="#00BCB4" d="M369.388 529.103L423.985 528.7C428.168 528.295 430.007 526.191 432.475 523.088L432.168 645.125L389.22 622.344L375.914 615.42C373.97 614.417 371.096 613.362 369.529 611.881L369.388 529.103Z"/>
	<path fill="#0FEDF1" d="M505.329 252.236C542.551 251.046 578.878 259.071 612.997 273.708C667.274 296.993 712.287 342.074 739.477 394.021C746.636 407.699 751.768 421.951 757.489 436.233C754.712 439.691 752.323 444.02 749.184 447.101L740.294 422.25C735.479 409.805 729.262 397.645 722.493 386.147C688.786 328.895 632.361 286.429 568.125 269.814C531.457 261.039 491.08 260.953 454.454 270.064C395.777 284.662 345.576 320.787 311.71 370.674C306.944 377.695 302.516 385.054 298.525 392.538C295.83 397.592 293.567 402.866 290.617 407.78L282.093 399.827C292.348 375.53 309.084 352.043 327.055 332.858C373.749 283.01 437.075 254.445 505.329 252.236Z"/>
	<path fill="#087CF3" d="M748.565 568.969L757.075 579.727L743.472 617.554C716.226 680.08 663.923 728.912 600.66 753.702C539.072 777.835 469.731 774.096 409.659 747.733C347.484 720.447 299.228 667.535 274.623 604.648L270.868 594.491L281.04 588.43L296.54 625.708C327.362 684.753 378.966 728.258 442.598 748.083C484.463 761.127 530.926 762.077 573.25 750.499C591.681 745.457 609.399 738.022 626.281 729.103C675.558 703.071 713.393 658.479 735.191 607.661C740.563 595.136 744.564 581.986 748.565 568.969Z"/>
	<path fill="#FF4B00" d="M519.741 532.184L582.575 531.946L582.519 649.226L519.975 682.829L519.741 532.184Z"/>
	<path fill="#00BCB4" d="M444.433 475.558C446.52 478.162 448.473 480.563 452 481.012L507.73 481.076L507.509 685.094L444.902 651.675L444.433 475.558Z"/>
	<path fill="#087CF3" d="M271.33 787.947C223.607 746.82 185.799 691.781 166.015 631.894L236.887 613.701C248.027 645.261 263.76 674.399 285.468 700C296.509 713.02 308.84 724.751 321.286 736.403L271.33 787.947Z"/>
	<path fill="#00BCB4" d="M652.207 375.145L656.75 374.998C656.809 373.533 657.097 372.143 657.377 370.709L657.518 609.059L594.401 643.022L594.167 389.616L594.015 371.599C595.74 373.788 597.381 376.311 600.391 376.61L651.327 376.28L652.207 375.145Z"/>
	<path fill="#0FEDF1" d="M594.015 371.599C595.74 373.788 597.381 376.311 600.391 376.61L651.327 376.28C643.631 388.315 636.137 400.29 626.827 411.179C617.294 422.328 605.998 431.905 594.571 441.041L594.604 401.782C594.604 399.286 595.309 391.377 594.167 389.616L594.015 371.599Z"/>
	<path fill="#00BCB4" d="M493.153 145.712L496.5 145.645C496.721 145.93 497.05 146.158 497.162 146.5C497.433 147.322 497.176 149.091 497.181 150.047L497.217 159.208L497.173 215.325C473.752 216.23 449.538 220.784 427.137 227.577C372.419 244.171 324.618 276.784 287.35 319.764C280.78 327.341 274.289 334.987 268.507 343.192C260.964 353.898 254.56 365.289 248.391 376.824C228.586 367.159 207.329 365.284 185.585 366.599L171.828 368.283C173.788 362.089 177.441 355.975 180.489 350.242C194.014 324.803 209.987 300.237 228.916 278.453C271.389 229.572 324.933 190.892 385.848 168.428C420.302 155.723 456.557 148.35 493.153 145.712Z"/>
	<path fill="#FF4B00" d="M526.028 145.905C537.667 145.963 549.319 147.421 560.82 149.104C605.986 155.715 647.617 170.389 687.775 191.955C751.179 226.004 803.731 282.291 835.953 346.355C844.003 362.36 851.213 379.139 856.371 396.309L842.479 395.49C823.26 395.561 805.776 400.812 788.871 409.681C784.63 398.178 779.043 387.078 773.245 376.286C761.756 354.905 748.044 334.149 731.917 315.965C679.129 256.442 605.364 220.086 525.839 215.25L526.028 145.905Z"/>
	<defs>
		<linearGradient id="gradient_0" gradientUnits="userSpaceOnUse" x1="835.78003" y1="607.01678" x2="847.5813" y2="410.29492">
			<stop offset="0" stop-color="#B71E00"/>
			<stop offset="1" stop-color="#FFA60E"/>
		</linearGradient>
	</defs>
	<path fill="url(#gradient_0)" d="M767.175 570.555C764.365 567.662 762.084 564.104 759.896 560.728C749.663 544.948 744.342 525.213 744.628 506.444C745.033 479.85 756.226 455.715 775.334 437.345C794.259 419.15 818.528 409.753 844.742 410.348C870.157 410.926 894.952 422.313 912.385 440.679C929.051 458.238 940.083 484.117 939.416 508.552C938.662 536.173 929.719 562.079 909.2 581.394L904.296 585.647L900.659 588.668C880.662 603.856 854.933 610.095 830.17 606.612C806.193 603.24 781.902 590.015 767.175 570.555Z"/>
	<path fill="#FDFCFC" d="M899.391 486.63C901.207 489.052 902.004 493.704 902.766 496.694C906.363 510.79 902.651 526.386 895.249 538.651C885.756 554.379 870.999 563.93 853.379 568.256L848.5 568.953C848.317 568.719 848.051 568.53 847.95 568.25C847.787 567.796 847.952 566.16 847.952 565.604L847.959 557.634L847.995 515.678L899.391 486.63Z"/>
	<path fill="#FDFCFC" d="M784.447 484.13L836.675 514.984C836.614 521.608 837.507 567.426 836.25 569.227L832.946 569.012L824.269 567.304C808.162 562.592 794.52 552.134 786.516 537.281C777.409 520.382 779.132 501.922 784.447 484.13Z"/>
	<path fill="#FDFCFC" d="M842.083 443.43L895.289 474.536C888.598 480.232 880.45 484.047 872.897 488.464L843.356 506.415L788.445 474.281L842.083 443.43Z"/>
	<defs>
		<linearGradient id="gradient_1" gradientUnits="userSpaceOnUse" x1="187.21468" y1="604.4751" x2="206.65929" y2="381.47031">
			<stop offset="0" stop-color="#003CA2"/>
			<stop offset="1" stop-color="#15DDFF"/>
		</linearGradient>
	</defs>
	<path fill="url(#gradient_1)" d="M123.017 408.792C145.12 389.151 175.787 379.784 205.04 381.526C227.285 382.851 250.16 392.506 267.514 406.312C270.1 408.369 273.741 410.931 275.75 413.534L276.131 414.133C291.328 427.62 301.632 447.101 306.708 466.563C308.241 472.443 309.612 478.361 309.979 484.446C311.712 513.183 302.638 543.725 283.284 565.386C275.605 573.979 265.425 583.316 255.022 588.312C252.598 590.309 249.422 591.749 246.62 593.165C236.485 598.288 225.67 601.413 214.5 603.329C183.191 608.699 154.724 600.415 129.044 582.4C121.219 576.343 114.155 569.771 108.005 561.994C89.1127 538.103 81.6753 508.723 85.2357 478.617C88.3917 451.93 101.736 425.586 123.017 408.792Z"/>
	<path fill="#FDFCFC" d="M188.632 412.32C191.964 410.413 195.06 408.281 199.072 409.529C202.221 410.508 205.838 413.476 208.677 415.272L249.59 439.836L262.305 447.635C264.604 449.069 267.3 450.492 269.344 452.266C270.704 453.446 272.499 455.791 272.507 457.646L272.481 529.206C268.274 534.125 261.02 537.673 255.505 541.111L222.541 561.042C216.252 564.798 210.168 569.115 203.703 572.541C201.412 573.755 199.143 574.609 196.655 575.335C194.527 574.965 192.369 573.791 190.481 572.747C182.963 568.591 175.944 563.544 168.625 559.051L140.386 542.091C135.442 539.097 127.788 535.597 124.333 530.955C123.815 530.259 122.888 529.147 122.622 528.337C122.267 527.256 122.569 524.855 122.556 523.653L122.54 509.168L122.604 472.561C122.615 467.568 121.979 461.442 122.86 456.57C123.347 453.877 125.635 451.192 127.75 449.577C132.446 445.989 138.595 443.223 143.759 440.222L170.576 423.788C176.424 420.196 182.777 416.821 188.214 412.647L188.632 412.32Z"/>
	<path fill="#1A202C" d="M138.498 469.617L138.491 462.513C138.786 461.333 190.403 430.252 196.206 426.631C200.015 428.249 203.636 430.87 207.186 433.019L227.841 445.512L244.425 455.292C248.354 457.526 252.897 459.619 256.362 462.5L256.454 467.71L256.506 521.789L201.925 555.092L197.547 558.057C195.57 557.518 193.783 556.372 191.997 555.388L138.948 522.821C137.928 517.481 138.554 510.934 138.541 505.455L138.498 469.617Z"/>
	<path fill="#012AAC" d="M196.081 437.87C197.8 438.477 199.488 439.803 201.059 440.75L209.706 445.841C220.12 451.939 231.752 457.523 241.404 464.711C235.876 468.947 229.512 472.367 223.466 475.831C214.505 480.967 205.464 486.12 196.93 491.939C195.283 491.355 193.5 489.905 192 488.967L183.509 483.787C173.141 477.645 161.265 472.399 151.741 465.078C152.861 463.747 154.879 462.763 156.371 461.846L167.073 455.456L196.081 437.87Z"/>
	<defs>
		<linearGradient id="gradient_2" gradientUnits="userSpaceOnUse" x1="158.11063" y1="546.66168" x2="171.87036" y2="477.43396">
			<stop offset="0" stop-color="#001AC4"/>
			<stop offset="1" stop-color="#0649E0"/>
		</linearGradient>
	</defs>
	<path fill="url(#gradient_2)" d="M138.498 469.617C145.476 472.142 152.756 477.645 159.188 481.45L191.984 500.754L191.997 555.388L138.948 522.821C137.928 517.481 138.554 510.934 138.541 505.455L138.498 469.617Z"/>
	<path fill="#012AAC" d="M256.454 467.71L256.506 521.789L201.925 555.092L201.636 500.493L256.454 467.71Z"/>
	<path fill="#012AAC" d="M321.286 736.403C338.34 750.347 356.052 763 375.5 773.455C424.671 799.886 484.282 811.946 539.848 806.345C616.123 798.658 689.144 760.124 737.724 700.516C759.359 673.969 777.86 641.569 788.037 608.794L843.093 631.426C846.507 632.853 853.236 634.628 855.953 636.918C849.776 653.762 841.896 670.025 833.21 685.707C795.245 754.255 736.237 810.998 664.839 843.925C639.597 855.566 613.183 864.603 585.973 870.325C518.198 884.577 447.112 878.083 382.343 854.038C341.982 839.053 303.998 815.872 271.33 787.947L321.286 736.403Z"/>
</svg>
